<svg id="Layer_1" xmlns="http://www.w3.org/2000/svg" viewBox="0 0 500 300"><g><path d="m153.715,140.819l-6.298-6.298c-8.343,7.079-19.369,10.641-30.094,9.648-10.174-.891-19.731-5.866-26.109-13.632l-14.267,14.267c5.607,4.931,12.145,8.725,19.068,11.075,20.102,7.108,43.928,1.081,57.7-15.059Z" fill="#fa5e00" class="color1" data-darkreader-inline-fill="" style="--darkreader-inline-fill: #a75320;"></path><path d="m138.631,168.267c-20.102-7.108-43.928-1.081-57.699,15.059,0,0,6.298,6.298,6.298,6.298,8.343-7.079,19.369-10.641,30.094-9.648,10.174.891,19.731,5.866,26.109,13.632l14.267-14.267c-5.607-4.931-12.145-8.725-19.068-11.075Z" fill="#fa5e00" class="color1" data-darkreader-inline-fill="" style="--darkreader-inline-fill: #a75320;"></path><path d="m117.324,132.755c7.28,0,13.182-5.902,13.182-13.182s-5.902-13.182-13.182-13.182-13.182,5.902-13.182,13.182,5.902,13.182,13.182,13.182Z" fill="#fa5e00" class="color1" data-darkreader-inline-fill="" style="--darkreader-inline-fill: #cc6d33;"></path></g><g><path d="m174.38,135.96h7.325v36.321h-7.325v-36.321Z" fill="#333" class="color0" data-darkreader-inline-fill="" style="--darkreader-inline-fill: #a7a49f;"></path><path d="m186.633,159.113c0-7.93,5.869-13.559,13.897-13.559s13.851,5.629,13.851,13.559-5.822,13.56-13.851,13.56-13.897-5.629-13.897-13.56Zm20.33,0c0-4.552-2.771-7.293-6.433-7.293s-6.479,2.741-6.479,7.293,2.817,7.294,6.479,7.294,6.433-2.741,6.433-7.294Z" fill="#333" class="color0" data-darkreader-inline-fill="" style="--darkreader-inline-fill: #a7a49f;"></path><path d="m234.942,145.555v7.049c-.61-.049-1.08-.098-1.643-.098-4.038,0-6.714,2.3-6.714,7.342v12.434h-7.325v-26.335h6.996v3.476c1.784-2.546,4.789-3.867,8.686-3.867Z" fill="#333" class="color0" data-darkreader-inline-fill="" style="--darkreader-inline-fill: #a7a49f;"></path><path d="m263.674,161.268h-19.109c.704,3.279,3.38,5.286,7.23,5.286,2.676,0,4.601-.832,6.338-2.545l3.897,4.405c-2.348,2.79-5.869,4.259-10.423,4.259-8.733,0-14.414-5.728-14.414-13.56,0-7.881,5.775-13.559,13.475-13.559,7.418,0,13.146,5.188,13.146,13.657,0,.587-.094,1.419-.141,2.056Zm-19.203-4.455h12.442c-.517-3.328-2.911-5.482-6.198-5.482-3.333,0-5.728,2.105-6.245,5.482Z" fill="#333" class="color0" data-darkreader-inline-fill="" style="--darkreader-inline-fill: #a7a49f;"></path><path d="m311.373,157.205v15.076h-7.324v-13.902c0-4.258-1.831-6.216-4.789-6.216-3.287,0-5.587,2.202-5.587,6.901v13.217h-7.324v-13.902c0-4.258-1.737-6.216-4.789-6.216-3.24,0-5.54,2.202-5.54,6.901v13.217h-7.325v-26.335h6.996v3.034c1.878-2.251,4.695-3.426,7.935-3.426,3.521,0,6.526,1.419,8.311,4.308,2.019-2.692,5.305-4.308,9.108-4.308,6.01,0,10.329,3.622,10.329,11.65Z" fill="#333" class="color0" data-darkreader-inline-fill="" style="--darkreader-inline-fill: #a7a49f;"></path><path d="m317.941,135.96h7.325v36.321h-7.325v-36.321Z" fill="#333" class="color0" data-darkreader-inline-fill="" style="--darkreader-inline-fill: #a7a49f;"></path><path d="m330.194,159.113c0-7.93,5.869-13.559,13.897-13.559s13.851,5.629,13.851,13.559-5.822,13.56-13.851,13.56-13.897-5.629-13.897-13.56Zm20.33,0c0-4.552-2.771-7.293-6.433-7.293s-6.479,2.741-6.479,7.293,2.817,7.294,6.479,7.294,6.433-2.741,6.433-7.294Z" fill="#333" class="color0" data-darkreader-inline-fill="" style="--darkreader-inline-fill: #a7a49f;"></path><path d="m388.879,145.946v21.93c0,9.79-5.071,14.293-14.179,14.293-4.789,0-9.438-1.224-12.395-3.622l2.911-5.482c2.16,1.812,5.681,2.986,8.921,2.986,5.165,0,7.418-2.448,7.418-7.196v-1.126c-1.925,2.203-4.695,3.28-7.982,3.28-6.996,0-12.63-5.042-12.63-12.728s5.634-12.727,12.63-12.727c3.521,0,6.432,1.224,8.357,3.769v-3.377h6.949Zm-7.23,12.335c0-3.867-2.77-6.461-6.62-6.461s-6.667,2.594-6.667,6.461,2.817,6.462,6.667,6.462,6.62-2.595,6.62-6.462Z" fill="#333" class="color0" data-darkreader-inline-fill="" style="--darkreader-inline-fill: #a7a49f;"></path><path d="m393.806,159.113c0-7.93,5.869-13.559,13.897-13.559s13.851,5.629,13.851,13.559-5.822,13.56-13.851,13.56-13.897-5.629-13.897-13.56Zm20.33,0c0-4.552-2.771-7.293-6.433-7.293s-6.479,2.741-6.479,7.293,2.817,7.294,6.479,7.294,6.433-2.741,6.433-7.294Z" fill="#333" class="color0" data-darkreader-inline-fill="" style="--darkreader-inline-fill: #a7a49f;"></path></g></svg>