<svg id="Layer_1" xmlns="http://www.w3.org/2000/svg" viewBox="0 0 500 300"><g><path d="m112.254,167.312v9.386c0,2.217,1.981,3.833,4.05,3.337,13.812-3.312,24.114-16.227,24.114-31.658,0-1.304-.075-2.59-.219-3.853-.323-2.829-3.653-4.005-5.582-1.99l-21.401,22.354c-.616.643-.962,1.515-.962,2.425Z" fill="#37b557" class="color1" data-darkreader-inline-fill="" style="--darkreader-inline-fill: #5caa70;"></path><path d="m105.146,116.184c-2.479.348-4.864,1.001-7.122,1.922-.72.293-.913,1.266-.367,1.836l6.893,7.199c.674.704,1.826.205,1.826-.79v-9.061c0-.683-.581-1.197-1.23-1.106Z" fill="#37b557" class="color1" data-darkreader-inline-fill="" style="--darkreader-inline-fill: #5caa70;"></path><path d="m115.027,154.312l20.321-21.226c.535-.559.649-1.412.248-2.074-1.311-2.161-2.859-4.148-4.606-5.923-1.842-1.871-4.873-1.838-6.689.059l-11.561,12.076c-.312.326-.486.759-.486,1.211v14.677c0,1.512,1.75,2.269,2.773,1.2Z" fill="#37b557" class="color1" data-darkreader-inline-fill="" style="--darkreader-inline-fill: #5caa70;"></path><path d="m105.89,137.224l-11.561-12.076c-1.816-1.896-4.847-1.929-6.689-.059-1.747,1.775-3.295,3.762-4.606,5.923-.401.661-.287,1.515.248,2.074l20.321,21.226c1.023,1.069,2.773.312,2.773-1.2v-14.677c0-.451-.174-.885-.486-1.211Z" fill="#37b557" class="color1" data-darkreader-inline-fill="" style="--darkreader-inline-fill: #5caa70;"></path><path d="m112.254,117.29v9.061c0,.995,1.152,1.494,1.826.79l6.893-7.199c.546-.571.353-1.543-.367-1.836-2.258-.921-4.643-1.574-7.122-1.922-.648-.091-1.23.423-1.23,1.106Z" fill="#37b557" class="color1" data-darkreader-inline-fill="" style="--darkreader-inline-fill: #5caa70;"></path><path d="m105.414,164.887l-21.401-22.354c-1.929-2.015-5.258-.84-5.582,1.99-.144,1.263-.219,2.549-.219,3.853,0,15.432,10.302,28.346,24.114,31.658,2.069.496,4.05-1.119,4.05-3.337v-9.386c0-.909-.346-1.782-.962-2.425Z" fill="#37b557" class="color1" data-darkreader-inline-fill="" style="--darkreader-inline-fill: #5caa70;"></path></g><g><path d="m154.264,166.678l3.166-.791v-33.771l-3.166-.791v-.791h6.86c3.165,0,4.748,1.582,4.748,4.748v30.605l3.166.791v.791h-14.774v-.791Z" fill="#333" class="color0" data-darkreader-inline-fill="" style="--darkreader-inline-fill: #a7a49f;"></path><path d="m175.925,164.541c-2.48-2.48-3.721-5.9-3.721-10.264s1.24-7.783,3.721-10.263c2.479-2.479,5.9-3.72,10.263-3.72s7.783,1.24,10.263,3.72c2.48,2.479,3.721,5.901,3.721,10.263s-1.24,7.783-3.721,10.264-5.901,3.72-10.263,3.72-7.783-1.24-10.263-3.72Zm13.824-.291c.967-1.969,1.451-5.293,1.451-9.973s-.484-8.002-1.451-9.973c-.968-1.969-2.155-2.955-3.562-2.955s-2.595.986-3.562,2.955c-.968,1.971-1.451,5.295-1.451,9.973s.483,8.004,1.451,9.973c.967,1.971,2.154,2.955,3.562,2.955s2.594-.984,3.562-2.955Z" fill="#333" class="color0" data-darkreader-inline-fill="" style="--darkreader-inline-fill: #a7a49f;"></path><path d="m204.392,166.678l3.166-.791v-23.218l-3.166-.792v-.791h4.749c2.075,0,3.711.669,4.907,2.006.457.527.845,1.178,1.161,1.951.527-.773,1.178-1.477,1.952-2.109,1.759-1.407,3.729-2.111,5.91-2.111,1.864,0,3.263.432,4.194,1.293.932.862,1.398,2.102,1.398,3.72,0,1.196-.361,2.155-1.081,2.876-.722.721-1.681,1.082-2.876,1.082-.493,0-.985-.035-1.478-.105l-.633-.158v-7.388c-1.795,0-3.431.704-4.907,2.11-.704.704-1.267,1.408-1.689,2.111v19.523l3.166.791v.791h-14.774v-.791Z" fill="#333" class="color0" data-darkreader-inline-fill="" style="--darkreader-inline-fill: #a7a49f;"></path><path d="m234.785,164.541c-2.498-2.48-3.747-5.9-3.747-10.264,0-2.85.545-5.329,1.636-7.439,1.09-2.111,2.612-3.729,4.564-4.854s4.195-1.688,6.728-1.688,4.758.475,6.675,1.424c1.917.95,3.395,2.227,4.433,3.826,1.037,1.602,1.557,3.369,1.557,5.303,0,.88-.088,1.637-.264,2.27l-.264.896c-1.513.316-3.148.58-4.907.791-3.694.528-7.423.792-11.187.792,0,4.081.562,6.991,1.688,8.733,1.125,1.74,2.673,2.611,4.644,2.611,1.372,0,2.646-.324,3.825-.977,1.179-.65,2.11-1.512,2.797-2.585.686-1.073,1.028-2.172,1.028-3.298h1.319c0,1.407-.422,2.744-1.267,4.01-.844,1.267-2.022,2.278-3.535,3.035-1.513.756-3.254,1.134-5.224,1.134-4.503,0-8.003-1.24-10.5-3.72Zm10.711-10.527c.598-.035,1.231-.123,1.899-.264.035-.176.123-.562.265-1.16.175-.879.264-1.812.264-2.797,0-2.92-.388-5.057-1.161-6.412-.774-1.354-1.707-2.031-2.797-2.031-2.638,0-3.957,4.311-3.957,12.928,2.251,0,4.08-.087,5.487-.264Z" fill="#333" class="color0" data-darkreader-inline-fill="" style="--darkreader-inline-fill: #a7a49f;"></path><path d="m260.588,166.678l3.166-.791v-23.218l-3.166-.792v-.791h4.749c2.075,0,3.711.669,4.907,2.006.457.527.845,1.178,1.161,1.951.527-.984,1.09-1.775,1.688-2.374,1.583-1.583,3.395-2.374,5.435-2.374s3.834.448,5.383,1.346c1.547.896,2.743,2.119,3.588,3.667.527-1.021,1.09-1.847,1.688-2.479,1.617-1.689,3.43-2.533,5.435-2.533,1.864,0,3.544.387,5.039,1.16,1.495.774,2.656,1.83,3.483,3.166.826,1.338,1.239,2.797,1.239,4.38v16.886l3.166.791v.791h-6.859c-3.166,0-4.749-1.582-4.749-4.748v-13.72c0-2.286-.352-4.001-1.056-5.145-.704-1.143-1.495-1.715-2.374-1.715-1.021,0-2.058.704-3.113,2.11-.422.669-.791,1.372-1.108,2.111v19.523l3.166.791v.791h-14.774v-.791l3.166-.791v-16.886c0-2.286-.352-4.001-1.055-5.145-.704-1.143-1.496-1.715-2.375-1.715-1.021,0-2.058.704-3.113,2.11-.422.669-.791,1.372-1.108,2.111v19.523l3.166.791v.791h-14.774v-.791Z" fill="#333" class="color0" data-darkreader-inline-fill="" style="--darkreader-inline-fill: #3a3c3d;"></path><path d="m310.716,166.678l3.166-.791v-33.771l-3.166-.791v-.791h6.86c3.165,0,4.748,1.582,4.748,4.748v30.605l3.166.791v.791h-14.774v-.791Z" fill="#333" class="color0" data-darkreader-inline-fill="" style="--darkreader-inline-fill: #a7a49f;"></path><path d="m332.377,164.541c-2.48-2.48-3.721-5.9-3.721-10.264s1.24-7.783,3.721-10.263c2.479-2.479,5.9-3.72,10.263-3.72s7.783,1.24,10.263,3.72c2.48,2.479,3.721,5.901,3.721,10.263s-1.24,7.783-3.721,10.264-5.901,3.72-10.263,3.72-7.783-1.24-10.263-3.72Zm13.824-.291c.967-1.969,1.451-5.293,1.451-9.973s-.484-8.002-1.451-9.973c-.968-1.969-2.155-2.955-3.562-2.955s-2.595.986-3.562,2.955c-.968,1.971-1.451,5.295-1.451,9.973s.483,8.004,1.451,9.973c.967,1.971,2.154,2.955,3.562,2.955s2.594-.984,3.562-2.955Z" fill="#333" class="color0" data-darkreader-inline-fill="" style="--darkreader-inline-fill: #a7a49f;"></path><path d="m365.592,177.97c-1.971-.563-3.386-1.284-4.247-2.163-.862-.88-1.293-1.812-1.293-2.797,0-1.196.36-2.155,1.081-2.876.721-.722,1.68-1.081,2.876-1.081.281,0,.792.053,1.53.158l.581.105v7.387c.422.141,1.09.316,2.005.527,1.617.352,3.147.528,4.591.528,4.291,0,7.431-.606,9.418-1.821,1.987-1.213,2.981-2.717,2.981-4.511,0-2.287-2.11-3.43-6.332-3.43h-10.025c-2.638,0-4.661-.545-6.068-1.636-1.407-1.09-2.11-2.48-2.11-4.169s.826-3.183,2.48-4.485c.668-.492,1.512-.932,2.532-1.318-1.302-.809-2.242-1.768-2.823-2.876-.58-1.108-.87-2.436-.87-3.983,0-2.604.984-4.705,2.955-6.307,1.97-1.6,4.854-2.4,8.653-2.4,1.653,0,3.175.168,4.564.502s2.506.783,3.351,1.345c.281-.598.65-1.125,1.108-1.583,1.055-1.055,2.356-1.583,3.904-1.583,1.195,0,2.198.414,3.008,1.24.809.827,1.214,1.909,1.214,3.245,0,1.021-.273,1.847-.818,2.48-.546.633-1.24.949-2.084.949-.388,0-.827-.035-1.319-.105l-.527-.158v-6.332c-.915,0-1.777.44-2.586,1.319-.316.316-.599.757-.844,1.319,1.758,1.548,2.638,3.57,2.638,6.068,0,2.604-.985,4.705-2.955,6.305-1.97,1.602-4.854,2.401-8.653,2.401-2.532,0-4.819-.439-6.859-1.319l-1.056.527c-.352.211-.615.414-.791.607-.177.193-.264.431-.264.712,0,.599.307,1.056.923,1.372.615.316,1.715.475,3.298.475h10.025c2.639,0,4.705.766,6.2,2.295,1.495,1.531,2.243,3.668,2.243,6.412,0,2.813-1.17,5.1-3.51,6.859-2.34,1.758-5.83,2.639-10.474,2.639-3.132,0-5.682-.282-7.651-.845Zm10.633-22.479c.65-1.126.976-3.113.976-5.962s-.325-4.837-.976-5.963c-.651-1.125-1.557-1.689-2.718-1.689s-2.066.564-2.718,1.689c-.651,1.126-.976,3.113-.976,5.963s.324,4.836.976,5.962,1.557,1.688,2.718,1.688,2.066-.562,2.718-1.688Z" fill="#333" class="color0" data-darkreader-inline-fill="" style="--darkreader-inline-fill: #a7a49f;"></path><path d="m395.433,164.541c-2.48-2.48-3.721-5.9-3.721-10.264s1.24-7.783,3.721-10.263c2.479-2.479,5.9-3.72,10.263-3.72s7.783,1.24,10.263,3.72c2.48,2.479,3.721,5.901,3.721,10.263s-1.24,7.783-3.721,10.264-5.901,3.72-10.263,3.72-7.783-1.24-10.263-3.72Zm13.824-.291c.967-1.969,1.451-5.293,1.451-9.973s-.484-8.002-1.451-9.973c-.968-1.969-2.155-2.955-3.562-2.955s-2.595.986-3.562,2.955c-.968,1.971-1.451,5.295-1.451,9.973s.483,8.004,1.451,9.973c.967,1.971,2.154,2.955,3.562,2.955s2.594-.984,3.562-2.955Z" fill="#333" class="color0" data-darkreader-inline-fill="" style="--darkreader-inline-fill: #a7a49f;"></path></g></svg>