<svg id="Layer_1" xmlns="http://www.w3.org/2000/svg" viewBox="0 0 500 300"><g><path d="m236.106,112.554h6.918v24.256h14.989v5.637h-21.907v-29.893Z" fill="#333" class="color0"></path><path d="m267.899,140.952c-2.492-1.338-4.441-3.182-5.851-5.53s-2.114-4.989-2.114-7.922.705-5.572,2.114-7.922c1.409-2.349,3.359-4.191,5.851-5.529,2.491-1.338,5.288-2.008,8.391-2.008s5.893.67,8.37,2.008c2.477,1.338,4.426,3.181,5.851,5.529,1.423,2.35,2.135,4.99,2.135,7.922s-.712,5.573-2.135,7.922c-1.424,2.349-3.374,4.192-5.851,5.53-2.477,1.338-5.268,2.007-8.37,2.007s-5.9-.669-8.391-2.007Zm13.174-5.104c1.423-.812,2.541-1.943,3.353-3.395.812-1.452,1.217-3.103,1.217-4.954s-.405-3.502-1.217-4.953c-.812-1.452-1.929-2.584-3.353-3.396-1.424-.812-3.018-1.217-4.783-1.217s-3.359.405-4.783,1.217c-1.424.812-2.541,1.943-3.353,3.396-.811,1.451-1.217,3.103-1.217,4.953s.406,3.502,1.217,4.954c.812,1.451,1.929,2.583,3.353,3.395,1.423.812,3.017,1.217,4.783,1.217s3.359-.405,4.783-1.217Z" fill="#333" class="color0"></path><path d="m317.328,142.446l-5.765-8.327h-6.363v8.327h-6.918v-29.893h12.939c2.647,0,4.946.441,6.896,1.324,1.95.883,3.452,2.135,4.505,3.758,1.053,1.622,1.58,3.544,1.58,5.765s-.534,4.136-1.602,5.744c-1.067,1.608-2.583,2.84-4.548,3.693l6.705,9.608h-7.431Zm-1.751-22.91c-1.082-.897-2.662-1.346-4.74-1.346h-5.637v10.42h5.637c2.078,0,3.658-.455,4.74-1.366,1.082-.911,1.623-2.192,1.623-3.844,0-1.68-.542-2.968-1.623-3.864Z" fill="#333" class="color0"></path><path d="m353.241,136.896v5.551h-23.146v-29.893h22.59v5.552h-15.715v6.491h13.878v5.38h-13.878v6.919h16.27Z" fill="#333" class="color0"></path><path d="m386.38,142.446l-.043-17.936-8.797,14.775h-3.118l-8.754-14.391v17.551h-6.491v-29.893h5.722l11.188,18.576,11.018-18.576h5.68l.085,29.893h-6.491Z" fill="#333" class="color0"></path><path d="m236.106,157.554h6.918v24.256h14.989v5.637h-21.907v-29.893Z" fill="#333" class="color0"></path><path d="m267.899,185.952c-2.492-1.338-4.441-3.182-5.851-5.53s-2.114-4.989-2.114-7.922.705-5.572,2.114-7.922c1.409-2.349,3.359-4.191,5.851-5.529,2.491-1.338,5.288-2.008,8.391-2.008s5.893.67,8.37,2.008c2.477,1.338,4.426,3.181,5.851,5.529,1.423,2.35,2.135,4.99,2.135,7.922s-.712,5.573-2.135,7.922c-1.424,2.349-3.374,4.192-5.851,5.53-2.477,1.338-5.268,2.007-8.37,2.007s-5.9-.669-8.391-2.007Zm13.174-5.104c1.423-.812,2.541-1.943,3.353-3.395.812-1.452,1.217-3.103,1.217-4.954s-.405-3.502-1.217-4.953c-.812-1.452-1.929-2.584-3.353-3.396-1.424-.812-3.018-1.217-4.783-1.217s-3.359.405-4.783,1.217c-1.424.812-2.541,1.943-3.353,3.396-.811,1.451-1.217,3.103-1.217,4.953s.406,3.502,1.217,4.954c.812,1.451,1.929,2.583,3.353,3.395,1.423.812,3.017,1.217,4.783,1.217s3.359-.405,4.783-1.217Z" fill="#333" class="color0"></path><path d="m318.481,172.03h6.32v12.128c-1.623,1.225-3.501,2.164-5.637,2.818-2.135.655-4.285.982-6.448.982-3.104,0-5.893-.662-8.37-1.985-2.477-1.324-4.42-3.16-5.829-5.509s-2.114-5.004-2.114-7.965.705-5.615,2.114-7.964,3.366-4.186,5.872-5.509c2.505-1.324,5.324-1.986,8.456-1.986,2.619,0,4.997.442,7.131,1.324,2.135.883,3.929,2.164,5.381,3.844l-4.441,4.099c-2.135-2.248-4.712-3.373-7.729-3.373-1.908,0-3.602.398-5.082,1.195-1.48.798-2.633,1.922-3.459,3.374-.826,1.452-1.238,3.117-1.238,4.996,0,1.852.412,3.502,1.238,4.954.826,1.451,1.971,2.583,3.438,3.395,1.466.812,3.139,1.217,5.018,1.217,1.992,0,3.786-.427,5.38-1.28v-8.755Z" fill="#333" class="color0"></path><path d="m337.719,185.952c-2.492-1.338-4.441-3.182-5.851-5.53s-2.114-4.989-2.114-7.922.705-5.572,2.114-7.922c1.409-2.349,3.359-4.191,5.851-5.529,2.491-1.338,5.288-2.008,8.391-2.008s5.893.67,8.37,2.008c2.477,1.338,4.426,3.181,5.851,5.529,1.423,2.35,2.135,4.99,2.135,7.922s-.712,5.573-2.135,7.922c-1.424,2.349-3.374,4.192-5.851,5.53-2.477,1.338-5.268,2.007-8.37,2.007s-5.9-.669-8.391-2.007Zm13.174-5.104c1.423-.812,2.541-1.943,3.353-3.395.812-1.452,1.217-3.103,1.217-4.954s-.405-3.502-1.217-4.953c-.812-1.452-1.929-2.584-3.353-3.396-1.424-.812-3.018-1.217-4.783-1.217s-3.359.405-4.783,1.217c-1.424.812-2.541,1.943-3.353,3.396-.811,1.451-1.217,3.103-1.217,4.953s.406,3.502,1.217,4.954c.812,1.451,1.929,2.583,3.353,3.395,1.423.812,3.017,1.217,4.783,1.217s3.359-.405,4.783-1.217Z" fill="#333" class="color0"></path><path d="m366.352,186.593c-.797-.797-1.195-1.794-1.195-2.989,0-1.224.398-2.214,1.195-2.968.797-.755,1.779-1.132,2.947-1.132s2.149.377,2.947,1.132c.796.754,1.195,1.744,1.195,2.968,0,1.195-.399,2.192-1.195,2.989-.797.797-1.78,1.195-2.947,1.195s-2.15-.398-2.947-1.195Z" fill="#333" class="color0"></path></g><path d="m208.653,102.826c-21.024,0-39.248,12.189-47.997,29.868-8.749-17.679-26.973-29.868-47.997-29.868h-5.529v40.822c0,27.648,21.071,50.465,47.997,53.241v.285h11.058v-.285c26.926-2.776,47.997-25.593,47.997-53.241v-40.822h-5.529Zm-90.465,11.416c20.789,2.715,36.901,20.525,36.939,42.035-8.735-11.373-21.926-19.149-36.939-20.696v-21.338Zm.111,32.486c19.762,2.632,35.272,18.907,36.717,39.016-19.762-2.632-35.272-18.907-36.717-39.016Zm47.997,39.016c1.445-20.109,16.955-36.384,36.717-39.016-1.445,20.109-16.955,36.384-36.717,39.016Zm36.828-50.163c-15.013,1.547-28.205,9.324-36.939,20.696.039-21.509,16.15-39.32,36.939-42.035v21.338Z" fill="#4ed173" class="color1"></path></svg>