<svg id="Layer_1" xmlns="http://www.w3.org/2000/svg" viewBox="0 0 500 300"><path d="m145.991,106.28h-14.589v9.635c-5.955-6.158-14.076-9.635-22.718-9.635-17.462,0-31.668,14.206-31.668,31.668,0,11.344,5.946,21.621,15.658,27.309-9.712,5.688-15.658,15.965-15.658,27.309v1.154h14.374v-1.154c0-9.536,7.758-17.294,17.294-17.294s17.293,7.758,17.293,17.294v1.154h14.374v-1.154c0-11.345-5.946-21.621-15.657-27.309,9.711-5.688,15.657-15.963,15.657-27.309,0-6.212-1.775-12.145-5.154-17.294h10.794v-14.374Zm-20.014,31.668c0,9.535-7.758,17.293-17.293,17.293s-17.294-7.758-17.294-17.293,7.758-17.294,17.294-17.294,17.293,7.758,17.293,17.294Z" fill="#fa5e00" class="color1"></path><g><path d="m169.471,132.252v39.89h-8.699v-39.89h8.699Z" fill="#333" class="color0"></path><path d="m174.469,159.598c0-1.826.368-3.532,1.105-5.118.736-1.586,1.762-2.963,3.076-4.133,1.312-1.17,2.875-2.091,4.686-2.764,1.81-.673,3.788-1.01,5.936-1.01,2.114,0,4.076.329,5.887.985,1.811.657,3.381,1.57,4.71,2.739,1.329,1.17,2.363,2.564,3.101,4.182.736,1.618,1.105,3.404,1.105,5.358s-.377,3.741-1.13,5.359-1.786,3.012-3.1,4.181c-1.314,1.17-2.893,2.075-4.734,2.716-1.843.641-3.837.961-5.983.961-2.114,0-4.069-.32-5.863-.961-1.795-.641-3.34-1.554-4.638-2.739s-2.315-2.604-3.052-4.254c-.737-1.649-1.105-3.484-1.105-5.503Zm9.18.097c0,.833.151,1.594.456,2.282.305.689.705,1.29,1.202,1.803.496.513,1.089.913,1.778,1.201.688.288,1.417.433,2.187.433s1.497-.145,2.187-.433c.688-.288,1.281-.688,1.778-1.201.496-.513.896-1.113,1.201-1.803.305-.688.457-1.434.457-2.234,0-.77-.152-1.497-.457-2.187-.305-.688-.705-1.29-1.201-1.803-.497-.512-1.09-.913-1.778-1.201-.689-.288-1.418-.433-2.187-.433s-1.498.145-2.187.433c-.689.288-1.282.689-1.778,1.201-.497.513-.897,1.105-1.202,1.778s-.456,1.394-.456,2.163Z" fill="#333" class="color0"></path><path d="m209.072,147.486h8.699v4.037c.929-1.473,2.066-2.603,3.412-3.388s2.915-1.178,4.71-1.178h.745c.271,0,.584.032.937.096v8.314c-1.153-.576-2.402-.864-3.748-.864-2.019,0-3.532.601-4.542,1.802-1.009,1.201-1.514,2.956-1.514,5.263v10.573h-8.699v-24.655Z" fill="#333" class="color0"></path><path d="m239.591,161.28c0,3.748,1.762,5.623,5.287,5.623,1.89,0,3.315-.77,4.277-2.308h8.41c-1.698,5.64-5.943,8.459-12.736,8.459-2.083,0-3.988-.312-5.719-.938-1.73-.624-3.213-1.514-4.445-2.667-1.234-1.153-2.188-2.53-2.86-4.133s-1.009-3.396-1.009-5.383c0-2.051.32-3.9.961-5.551s1.554-3.053,2.739-4.206,2.62-2.042,4.302-2.667c1.683-.625,3.58-.938,5.695-.938,2.082,0,3.957.312,5.623.938,1.665.625,3.076,1.53,4.229,2.716s2.034,2.636,2.643,4.349c.608,1.715.913,3.646.913,5.792v.913h-18.311Zm10.188-5.047c-.288-1.217-.881-2.194-1.778-2.932-.896-.736-1.986-1.105-3.268-1.105-1.346,0-2.443.354-3.292,1.058-.85.705-1.387,1.698-1.61,2.979h9.948Z" fill="#333" class="color0"></path><path d="m262.852,147.486h8.699v3.028c2.371-2.274,5.029-3.412,7.978-3.412,3.653,0,6.44,1.538,8.363,4.613,1.953-3.107,4.741-4.662,8.362-4.662,1.153,0,2.242.169,3.268.505,1.025.337,1.906.865,2.644,1.586.736.721,1.321,1.658,1.754,2.812s.649,2.548.649,4.182v16.004h-8.699v-12.159c0-1.25-.089-2.274-.265-3.076-.176-.8-.433-1.425-.769-1.874-.337-.448-.729-.753-1.178-.913-.449-.16-.93-.24-1.441-.24-2.788,0-4.182,2.035-4.182,6.104v12.159h-8.698v-12.159c0-1.25-.081-2.283-.241-3.1-.16-.817-.393-1.466-.696-1.946-.305-.481-.697-.81-1.178-.985s-1.041-.265-1.682-.265c-.546,0-1.058.08-1.538.24-.48.161-.906.473-1.273.938-.369.465-.657,1.105-.865,1.922-.209.817-.312,1.883-.312,3.196v12.159h-8.699v-24.655Z" fill="#333" class="color0"></path><path d="m319.227,132.252v39.89h-8.699v-39.89h8.699Z" fill="#333" class="color0"></path><path d="m324.225,159.598c0-1.826.368-3.532,1.105-5.118.736-1.586,1.762-2.963,3.076-4.133,1.312-1.17,2.875-2.091,4.686-2.764,1.81-.673,3.788-1.01,5.936-1.01,2.114,0,4.076.329,5.887.985,1.811.657,3.381,1.57,4.71,2.739,1.329,1.17,2.363,2.564,3.101,4.182.736,1.618,1.105,3.404,1.105,5.358s-.377,3.741-1.13,5.359-1.786,3.012-3.1,4.181c-1.314,1.17-2.893,2.075-4.734,2.716-1.843.641-3.837.961-5.983.961-2.114,0-4.069-.32-5.863-.961-1.795-.641-3.34-1.554-4.638-2.739s-2.315-2.604-3.052-4.254c-.737-1.649-1.105-3.484-1.105-5.503Zm9.18.097c0,.833.151,1.594.456,2.282.305.689.705,1.29,1.202,1.803.496.513,1.089.913,1.778,1.201.688.288,1.417.433,2.187.433s1.497-.145,2.187-.433c.688-.288,1.281-.688,1.778-1.201.496-.513.896-1.113,1.201-1.803.305-.688.457-1.434.457-2.234,0-.77-.152-1.497-.457-2.187-.305-.688-.705-1.29-1.201-1.803-.497-.512-1.09-.913-1.778-1.201-.689-.288-1.418-.433-2.187-.433s-1.498.145-2.187.433c-.689.288-1.282.689-1.778,1.201-.497.513-.897,1.105-1.202,1.778s-.456,1.394-.456,2.163Z" fill="#333" class="color0"></path><path d="m386.414,147.486v22.974c0,1.378-.08,2.61-.24,3.7-.161,1.089-.385,2.05-.673,2.884-.385,1.057-.985,2.042-1.803,2.955-.816.913-1.802,1.707-2.955,2.38-1.153.672-2.46,1.201-3.917,1.586-1.459.384-3.036.576-4.734.576-1.922,0-3.685-.24-5.286-.721-1.603-.48-3.004-1.146-4.205-1.994-1.202-.85-2.188-1.843-2.956-2.98-.77-1.138-1.282-2.379-1.538-3.725h9.805c.607,1.635,1.986,2.451,4.133,2.451,1.826,0,3.228-.513,4.205-1.538s1.466-2.451,1.466-4.277v-2.354c-.641.608-1.258,1.113-1.851,1.514-.593.401-1.193.729-1.802.985-.609.256-1.25.44-1.923.553-.673.111-1.41.168-2.21.168-1.763,0-3.381-.305-4.854-.913s-2.748-1.457-3.82-2.547c-1.074-1.089-1.907-2.395-2.5-3.917-.593-1.521-.889-3.212-.889-5.07,0-1.891.32-3.645.961-5.263.641-1.617,1.514-3.028,2.619-4.229s2.419-2.146,3.941-2.835c1.521-.689,3.18-1.034,4.975-1.034,2.915,0,5.366,1.09,7.353,3.269v-2.596h8.699Zm-19.513,12.208c0,.801.145,1.546.433,2.234.288.689.681,1.29,1.178,1.803.496.513,1.089.913,1.778,1.201.688.288,1.434.433,2.234.433.77,0,1.497-.145,2.187-.433.688-.288,1.281-.688,1.778-1.201s.896-1.113,1.202-1.803c.304-.688.456-1.418.456-2.187,0-.801-.152-1.538-.456-2.211-.306-.673-.714-1.266-1.226-1.778-.514-.512-1.114-.913-1.803-1.201-.689-.288-1.402-.433-2.139-.433-.769,0-1.489.152-2.162.456-.673.306-1.267.705-1.778,1.202-.514.497-.922,1.081-1.226,1.754-.306.673-.457,1.394-.457,2.163Z" fill="#333" class="color0"></path><path d="m391.364,159.598c0-1.826.368-3.532,1.105-5.118.736-1.586,1.762-2.963,3.076-4.133,1.312-1.17,2.875-2.091,4.686-2.764,1.81-.673,3.788-1.01,5.936-1.01,2.114,0,4.076.329,5.887.985,1.811.657,3.381,1.57,4.71,2.739,1.329,1.17,2.363,2.564,3.101,4.182.736,1.618,1.105,3.404,1.105,5.358s-.377,3.741-1.13,5.359-1.786,3.012-3.1,4.181c-1.314,1.17-2.893,2.075-4.734,2.716-1.843.641-3.837.961-5.983.961-2.114,0-4.069-.32-5.863-.961-1.795-.641-3.34-1.554-4.638-2.739s-2.315-2.604-3.052-4.254c-.737-1.649-1.105-3.484-1.105-5.503Zm9.18.097c0,.833.151,1.594.456,2.282.305.689.705,1.29,1.202,1.803.496.513,1.089.913,1.778,1.201.688.288,1.417.433,2.187.433s1.497-.145,2.187-.433c.688-.288,1.281-.688,1.778-1.201.496-.513.896-1.113,1.201-1.803.305-.688.457-1.434.457-2.234,0-.77-.152-1.497-.457-2.187-.305-.688-.705-1.29-1.201-1.803-.497-.512-1.09-.913-1.778-1.201-.689-.288-1.418-.433-2.187-.433s-1.498.145-2.187.433c-.689.288-1.282.689-1.778,1.201-.497.513-.897,1.105-1.202,1.778s-.456,1.394-.456,2.163Z" fill="#333" class="color0"></path></g></svg>