<svg id="Layer_1" xmlns="http://www.w3.org/2000/svg" viewBox="0 0 500 300"><g><path d="m198.362,113.097c-1.155-4.036-1.155-7.082-1.155-9.329,0-16.271,13.238-29.496,29.496-29.496,9.57,0,17.045,6.943,21.462,12.451,4.417-5.508,11.893-12.451,21.475-12.451,16.259,0,29.484,13.225,29.484,29.496,0,2.107,0,4.912-.952,8.58h-9.316c1.383-3.858,1.383-6.613,1.383-8.58,0-11.372-9.24-20.612-20.599-20.612-7.006,0-13.898,7.323-17.667,13.593-.8,1.333-2.247,2.145-3.808,2.145s-2.995-.812-3.808-2.145c-3.77-6.27-10.661-13.593-17.655-13.593-11.372,0-20.612,9.24-20.612,20.612,0,2.094,0,5.077,1.663,9.329h-9.392Z" fill="#e52352" class="color1"></path><path d="m275.746,131.361c-2.412,2.538-5.242,5.267-8.529,8.225-1.498,1.345-3.084,2.729-4.785,4.163-.355.292-.711.584-1.066.888l-13.2,10.991-13.187-10.991c-5.546-4.62-10.027-8.77-13.631-12.502h-11.931c4.633,5.559,11.042,11.969,19.876,19.33l16.03,13.365c.825.685,1.84,1.028,2.843,1.028,1.015,0,2.018-.343,2.843-1.028l16.043-13.365c9.227-7.691,15.802-14.342,20.472-20.079h-11.271c-.165,0-.343,0-.508-.025Z" fill="#e52352" class="color1"></path><path d="m305.775,117.425h-26.362l-6.359-18.315c-.622-1.79-2.31-2.983-4.201-2.983h-.114c-1.929.063-3.617,1.358-4.15,3.211l-6.295,21.729-5.394-13.872c-.609-1.548-2.018-2.627-3.681-2.805-1.65-.165-3.262.597-4.176,1.993l-7.717,11.791h-43.102c-2.45,0-4.442,1.98-4.442,4.442,0,2.45,1.993,4.442,4.442,4.442h45.501c1.498,0,2.894-.762,3.719-2.018l4.303-6.575,7.031,18.048c.673,1.713,2.31,2.83,4.138,2.83.063,0,.14,0,.203-.013,1.904-.076,3.541-1.371,4.061-3.198l6.054-20.917,2.818,8.11c.622,1.777,2.31,2.983,4.201,2.983h29.522c2.45,0,4.442-1.993,4.442-4.442,0-2.462-1.993-4.442-4.442-4.442Z" fill="#ec439d" class="color2"></path></g><g><path d="m139.255,211.95c-.431-.414-.646-.973-.646-1.674v-29.182c0-.733.223-1.331.67-1.794.446-.462,1.036-.693,1.77-.693.766,0,1.371.224,1.818.67.446.446.669,1.052.669,1.817v27.363h14.543c.733,0,1.3.176,1.698.526.398.352.599.861.599,1.531s-.2,1.18-.599,1.53c-.398.352-.965.526-1.698.526h-17.078c-.733,0-1.315-.207-1.746-.622Z" fill="#333" class="color0"></path><path d="m168.196,211.424c-1.738-.988-3.078-2.399-4.018-4.233-.941-1.833-1.412-3.962-1.412-6.387,0-2.455.471-4.6,1.412-6.434.939-1.834,2.279-3.245,4.018-4.234,1.738-.987,3.756-1.482,6.052-1.482s4.313.495,6.052,1.482c1.737.989,3.077,2.4,4.019,4.234.94,1.834,1.411,3.979,1.411,6.434,0,2.425-.471,4.554-1.411,6.387-.941,1.834-2.281,3.245-4.019,4.233-1.738.989-3.756,1.483-6.052,1.483s-4.313-.494-6.052-1.483Zm10.955-4.448c1.132-1.403,1.698-3.46,1.698-6.172,0-2.679-.574-4.728-1.722-6.146-1.148-1.419-2.775-2.129-4.88-2.129s-3.731.71-4.879,2.129c-1.148,1.419-1.723,3.468-1.723,6.146,0,2.712.565,4.769,1.698,6.172,1.132,1.403,2.767,2.104,4.903,2.104s3.771-.701,4.903-2.104Z" fill="#333" class="color0"></path><path d="m205.631,190.71c0,.702-.176,1.229-.526,1.579s-.957.559-1.817.622l-1.436.144c-2.009.191-3.5.893-4.473,2.104-.974,1.213-1.459,2.679-1.459,4.401v10.955c0,.765-.224,1.339-.67,1.722-.447.383-1.021.574-1.723.574s-1.284-.191-1.746-.574-.693-.957-.693-1.722v-19.471c0-.733.231-1.299.693-1.698.462-.398,1.045-.598,1.746-.598.638,0,1.172.199,1.603.598.431.399.646.949.646,1.65v2.297c.638-1.403,1.562-2.472,2.774-3.206,1.212-.732,2.583-1.163,4.114-1.291l.669-.048c1.531-.096,2.297.559,2.297,1.961Z" fill="#333" class="color0"></path><path d="m227.492,207.215c.287.351.431.797.431,1.339,0,.926-.574,1.707-1.722,2.344-1.117.639-2.337,1.133-3.66,1.483s-2.591.526-3.803.526c-3.7,0-6.618-1.076-8.755-3.229-2.137-2.152-3.205-5.095-3.205-8.826,0-2.392.471-4.512,1.412-6.362.939-1.849,2.264-3.284,3.97-4.306,1.706-1.02,3.644-1.53,5.812-1.53,3.125,0,5.598,1.005,7.415,3.014,1.818,2.009,2.727,4.721,2.727,8.133,0,1.275-.574,1.913-1.722,1.913h-14.782c.318,4.944,2.694,7.415,7.128,7.415,1.18,0,2.2-.159,3.062-.479.861-.318,1.771-.733,2.727-1.244.096-.063.359-.198.79-.406.43-.207.789-.311,1.076-.311.446,0,.813.176,1.1.526Zm-13.873-13.252c-1.116,1.181-1.786,2.839-2.009,4.976h12.342c-.096-2.169-.646-3.835-1.65-4.999-1.004-1.164-2.415-1.746-4.233-1.746-1.85,0-3.333.591-4.449,1.77Z" fill="#333" class="color0"></path><path d="m268.059,198.077v12.438c0,.733-.224,1.3-.67,1.698s-1.036.598-1.77.598c-.702,0-1.276-.199-1.723-.598s-.67-.965-.67-1.698v-12.391c0-1.944-.351-3.356-1.052-4.233-.702-.877-1.803-1.315-3.301-1.315-1.755,0-3.142.598-4.162,1.794-1.021,1.195-1.531,2.83-1.531,4.903v11.242c0,.733-.224,1.3-.669,1.698-.447.398-1.037.598-1.771.598-.702,0-1.276-.199-1.722-.598-.447-.398-.67-.965-.67-1.698v-12.391c0-1.944-.352-3.356-1.053-4.233-.702-.877-1.802-1.315-3.301-1.315-1.754,0-3.149.598-4.186,1.794-1.037,1.195-1.555,2.83-1.555,4.903v11.242c0,.733-.224,1.3-.67,1.698-.447.398-1.021.598-1.723.598s-1.284-.199-1.746-.598-.693-.965-.693-1.698v-19.471c0-.701.239-1.259.718-1.674.479-.414,1.053-.622,1.722-.622s1.22.199,1.65.598c.431.399.646.949.646,1.65v1.771c.701-1.34,1.674-2.36,2.918-3.062,1.243-.701,2.679-1.053,4.306-1.053,1.785,0,3.26.367,4.425,1.101,1.164.733,2.033,1.865,2.607,3.396.701-1.371,1.737-2.464,3.109-3.277,1.37-.813,2.934-1.22,4.688-1.22,5.23,0,7.846,3.142,7.846,9.424Z" fill="#333" class="color0"></path><path d="m275.354,212.237c-.462-.383-.693-.957-.693-1.722v-29.564c0-.766.231-1.347.693-1.746.462-.398,1.045-.598,1.746-.598s1.275.199,1.723.598c.446.399.67.98.67,1.746v29.564c0,.765-.224,1.339-.67,1.722-.447.383-1.021.574-1.723.574s-1.284-.191-1.746-.574Z" fill="#333" class="color0"></path><path d="m290.327,211.424c-1.738-.988-3.078-2.399-4.018-4.233-.941-1.833-1.412-3.962-1.412-6.387,0-2.455.471-4.6,1.412-6.434.939-1.834,2.279-3.245,4.018-4.234,1.738-.987,3.756-1.482,6.052-1.482s4.313.495,6.052,1.482c1.737.989,3.077,2.4,4.019,4.234.94,1.834,1.411,3.979,1.411,6.434,0,2.425-.471,4.554-1.411,6.387-.941,1.834-2.281,3.245-4.019,4.233-1.738.989-3.756,1.483-6.052,1.483s-4.313-.494-6.052-1.483Zm10.955-4.448c1.132-1.403,1.698-3.46,1.698-6.172,0-2.679-.574-4.728-1.722-6.146-1.148-1.419-2.775-2.129-4.88-2.129s-3.731.71-4.879,2.129c-1.148,1.419-1.723,3.468-1.723,6.146,0,2.712.565,4.769,1.698,6.172,1.132,1.403,2.767,2.104,4.903,2.104s3.771-.701,4.903-2.104Z" fill="#333" class="color0"></path><path d="m334.29,189.395c.431.431.646.997.646,1.698v19.614c0,3.571-.949,6.267-2.847,8.084-1.897,1.818-4.696,2.727-8.396,2.727-3.444,0-6.314-.653-8.611-1.961-1.18-.67-1.77-1.468-1.77-2.392,0-.543.151-.989.454-1.34.303-.352.678-.526,1.125-.526.414,0,1.067.239,1.961.718,1.148.542,2.216.964,3.205,1.268.988.303,2.169.455,3.54.455,4.401,0,6.602-2.218,6.602-6.65v-3.684c-.67,1.404-1.69,2.496-3.062,3.277-1.372.782-2.966,1.172-4.784,1.172-2.041,0-3.858-.479-5.453-1.435-1.595-.957-2.831-2.312-3.707-4.066-.878-1.754-1.316-3.779-1.316-6.075s.446-4.321,1.34-6.076c.893-1.753,2.129-3.116,3.707-4.09,1.579-.973,3.389-1.459,5.43-1.459,1.786,0,3.356.383,4.713,1.148,1.354.765,2.383,1.85,3.085,3.253v-2.01c0-.701.216-1.259.646-1.674.431-.414,1.013-.622,1.746-.622s1.316.215,1.746.646Zm-5.907,16.576c1.179-1.371,1.77-3.269,1.77-5.692,0-2.393-.582-4.282-1.746-5.669-1.164-1.388-2.799-2.081-4.903-2.081s-3.755.686-4.951,2.057c-1.196,1.372-1.794,3.27-1.794,5.693s.605,4.321,1.817,5.692,2.854,2.057,4.928,2.057,3.699-.686,4.88-2.057Z" fill="#333" class="color0"></path><path d="m345.771,211.424c-1.738-.988-3.078-2.399-4.018-4.233-.941-1.833-1.412-3.962-1.412-6.387,0-2.455.471-4.6,1.412-6.434.939-1.834,2.279-3.245,4.018-4.234,1.738-.987,3.756-1.482,6.052-1.482s4.313.495,6.052,1.482c1.737.989,3.077,2.4,4.019,4.234.94,1.834,1.411,3.979,1.411,6.434,0,2.425-.471,4.554-1.411,6.387-.941,1.834-2.281,3.245-4.019,4.233-1.738.989-3.756,1.483-6.052,1.483s-4.313-.494-6.052-1.483Zm10.955-4.448c1.132-1.403,1.698-3.46,1.698-6.172,0-2.679-.574-4.728-1.722-6.146-1.148-1.419-2.775-2.129-4.88-2.129s-3.731.71-4.879,2.129c-1.148,1.419-1.723,3.468-1.723,6.146,0,2.712.565,4.769,1.698,6.172,1.132,1.403,2.767,2.104,4.903,2.104s3.771-.701,4.903-2.104Z" fill="#333" class="color0"></path></g></svg>