<svg id="Layer_1" xmlns="http://www.w3.org/2000/svg" viewBox="0 0 500 300"><path d="m156.982,137.144l-30.77-22.817c-5.724-4.254-13.414-4.254-19.137,0l-30.741,22.797c-5.441,3.933-5.325,7.408-4.77,9.121.818,2.502,3.271,4.001,6.561,4.001h5.85v29.849c0,4.556,3.709,8.274,8.274,8.274h15.107c.827,0,1.616-.302,2.239-.837.058-.049,2.57-2.239,5.685-4.945l-5.159-4.536c-1.684,1.46-3.134,2.726-4.04,3.504h-13.832c-.808,0-1.46-.662-1.46-1.46v-33.256c0-1.888-1.528-3.407-3.407-3.407h-8.05c.282-.243.623-.516,1.032-.818l30.77-22.817c3.29-2.443,7.719-2.443,11.019,0l30.75,22.817c.409.292.74.574,1.012.818h-8.011c-1.879,0-3.407,1.519-3.407,3.407v33.256c0,.798-.652,1.46-1.46,1.46h-12.839c-1.061-.944-2.852-2.541-4.877-4.351l-.886-.788-5.159-4.556c-1.713-1.509-3.251-2.852-4.283-3.738-11.243-9.647-11.243-13.881-11.243-15.477,0-3.748,3.047-6.804,6.804-6.804.487,0,2.346.448,5.841,6.24.613,1.022,1.723,1.645,2.911,1.645,1.197,0,2.307-.623,2.92-1.645,3.485-5.792,5.354-6.24,5.841-6.24,3.757,0,6.804,3.057,6.804,6.804,0,1.781,0,5.938-11.224,15.468-.642.545-1.47,1.256-2.424,2.073l5.159,4.546c.642-.555,1.207-1.042,1.674-1.431,12.012-10.192,13.628-16.159,13.628-20.656,0-7.505-6.113-13.618-13.618-13.618-3.553,0-6.473,2.434-8.761,5.266-2.278-2.833-5.198-5.266-8.751-5.266-7.515,0-13.618,6.113-13.618,13.618,0,4.429,1.616,10.347,13.618,20.646.029.019.058.049.088.068.136.117.273.234.419.36l.964.847.545.477.477.419,1.012.896,5.159,4.556c3.845,3.407,7.349,6.532,7.417,6.59.623.555,1.431.866,2.268.866h14.134c4.565,0,8.274-3.718,8.274-8.274v-29.849h5.841c3.261,0,5.695-1.47,6.512-3.923.691-2.073.438-5.344-4.682-9.179Z" fill="#7d4dff" class="color1"></path><g><path d="m176.127,138.752h7.438v36.887h-7.438v-36.887Z" fill="#333" class="color0"></path><path d="m188.57,162.266c0-8.054,5.961-13.771,14.115-13.771s14.066,5.717,14.066,13.771-5.913,13.771-14.066,13.771-14.115-5.717-14.115-13.771Zm20.647,0c0-4.623-2.813-7.407-6.532-7.407s-6.581,2.784-6.581,7.407,2.861,7.407,6.581,7.407,6.532-2.784,6.532-7.407Z" fill="#333" class="color0"></path><path d="m237.636,148.495v7.159c-.62-.05-1.097-.1-1.669-.1-4.101,0-6.818,2.336-6.818,7.457v12.627h-7.438v-26.746h7.104v3.53c1.812-2.585,4.863-3.928,8.821-3.928Z" fill="#333" class="color0"></path><path d="m266.817,164.453h-19.407c.715,3.331,3.433,5.369,7.343,5.369,2.718,0,4.673-.845,6.438-2.585l3.958,4.474c-2.385,2.834-5.961,4.325-10.586,4.325-8.869,0-14.639-5.816-14.639-13.771,0-8.004,5.864-13.771,13.685-13.771,7.534,0,13.352,5.27,13.352,13.87,0,.597-.096,1.441-.143,2.088Zm-19.503-4.523h12.636c-.524-3.381-2.956-5.568-6.294-5.568-3.386,0-5.817,2.138-6.342,5.568Z" fill="#333" class="color0"></path><path d="m315.262,160.327v15.312h-7.438v-14.118c0-4.325-1.859-6.313-4.863-6.313-3.338,0-5.675,2.236-5.675,7.009v13.423h-7.438v-14.118c0-4.325-1.765-6.313-4.863-6.313-3.291,0-5.627,2.236-5.627,7.009v13.423h-7.438v-26.746h7.104v3.083c1.907-2.287,4.769-3.48,8.059-3.48,3.576,0,6.628,1.441,8.44,4.375,2.05-2.734,5.388-4.375,9.25-4.375,6.104,0,10.49,3.679,10.49,11.832Z" fill="#333" class="color0"></path><path d="m321.935,138.752h7.438v36.887h-7.438v-36.887Z" fill="#333" class="color0"></path><path d="m334.379,162.266c0-8.054,5.961-13.771,14.115-13.771s14.066,5.717,14.066,13.771-5.913,13.771-14.066,13.771-14.115-5.717-14.115-13.771Zm20.647,0c0-4.623-2.813-7.407-6.532-7.407s-6.581,2.784-6.581,7.407,2.861,7.407,6.581,7.407,6.532-2.784,6.532-7.407Z" fill="#333" class="color0"></path><path d="m393.981,148.893v22.271c0,9.943-5.149,14.517-14.4,14.517-4.863,0-9.584-1.243-12.588-3.679l2.956-5.568c2.193,1.84,5.77,3.033,9.06,3.033,5.245,0,7.534-2.486,7.534-7.308v-1.144c-1.955,2.236-4.769,3.33-8.106,3.33-7.104,0-12.827-5.12-12.827-12.925s5.723-12.926,12.827-12.926c3.576,0,6.533,1.243,8.488,3.828v-3.431h7.057Zm-7.343,12.528c0-3.928-2.813-6.562-6.724-6.562s-6.771,2.635-6.771,6.562,2.861,6.562,6.771,6.562,6.724-2.635,6.724-6.562Z" fill="#333" class="color0"></path><path d="m398.986,162.266c0-8.054,5.961-13.771,14.115-13.771s14.066,5.717,14.066,13.771-5.913,13.771-14.066,13.771-14.115-5.717-14.115-13.771Zm20.647,0c0-4.623-2.813-7.407-6.532-7.407s-6.581,2.784-6.581,7.407,2.861,7.407,6.581,7.407,6.532-2.784,6.532-7.407Z" fill="#333" class="color0"></path></g></svg>