<svg id="Layer_1" xmlns="http://www.w3.org/2000/svg" viewBox="0 0 500 300"><g><path d="m180.622,143.935v35.608h11.702v5.885h-17.707v-41.493h6.005Z" fill="#333" class="color0"></path><path d="m195.726,172.152c0-3.78,1.297-6.996,3.892-9.647s5.756-3.978,9.485-3.978,6.925,1.335,9.537,4.004c2.578,2.67,3.866,5.948,3.866,9.836,0,3.924-1.297,7.212-3.892,9.863-2.612,2.633-5.817,3.95-9.614,3.95-3.763,0-6.917-1.344-9.459-4.031-2.543-2.651-3.814-5.983-3.814-9.997Zm5.928.107c0,2.616.67,4.686,2.01,6.208,1.375,1.541,3.187,2.311,5.438,2.311,2.268,0,4.081-.761,5.438-2.284,1.357-1.522,2.036-3.556,2.036-6.1s-.679-4.578-2.036-6.101c-1.375-1.541-3.188-2.312-5.438-2.312-2.217,0-4.012.771-5.387,2.312-1.375,1.541-2.062,3.529-2.062,5.966Z" fill="#333" class="color0"></path><path d="m228.641,159.253h5.799v2.338c1.065-1.164,2.01-1.962,2.835-2.392.842-.447,1.839-.672,2.99-.672,1.529,0,3.127.52,4.794,1.559l-2.655,5.536c-1.1-.824-2.174-1.236-3.222-1.236-3.162,0-4.743,2.49-4.743,7.471v13.571h-5.799v-26.175Z" fill="#333" class="color0"></path><path d="m270.886,173.765h-17.991c.154,2.15.825,3.861,2.01,5.133,1.186,1.255,2.707,1.881,4.562,1.881,1.443,0,2.638-.357,3.583-1.074.928-.717,1.984-2.043,3.17-3.978l4.897,2.849c-.756,1.344-1.555,2.495-2.397,3.453-.842.959-1.744,1.747-2.707,2.365s-2.002,1.07-3.119,1.356c-1.117.287-2.329.431-3.634.431-3.746,0-6.753-1.254-9.021-3.763-2.268-2.526-3.402-5.876-3.402-10.051,0-4.139,1.099-7.488,3.299-10.051,2.217-2.526,5.155-3.789,8.815-3.789,3.694,0,6.615,1.228,8.763,3.682,2.13,2.437,3.196,5.814,3.196,10.132l-.026,1.424Zm-5.954-4.944c-.808-3.226-2.758-4.838-5.851-4.838-.705,0-1.366.112-1.984.336-.619.225-1.182.547-1.688.968s-.94.927-1.301,1.519c-.361.591-.636,1.263-.825,2.016h11.65Z" fill="#333" class="color0"></path><path d="m277.227,159.253h5.799v2.419c1.117-1.219,2.07-2.043,2.861-2.473.842-.447,1.898-.672,3.17-.672,2.835,0,5.078,1.29,6.728,3.87,1.821-2.58,4.287-3.87,7.397-3.87,5.653,0,8.48,3.574,8.48,10.723v16.178h-5.825v-14.538c0-2.509-.292-4.282-.876-5.321-.602-1.057-1.59-1.586-2.964-1.586-1.598,0-2.762.628-3.492,1.882-.731,1.254-1.096,3.27-1.096,6.046v13.518h-5.825v-14.458c0-4.658-1.289-6.987-3.866-6.987-1.633,0-2.822.637-3.57,1.908-.748,1.272-1.121,3.278-1.121,6.02v13.518h-5.799v-26.175Z" fill="#333" class="color0"></path><path d="m324.781,140.038v45.39h-5.799v-45.39h5.799Z" fill="#333" class="color0"></path><path d="m330.941,172.152c0-3.78,1.297-6.996,3.892-9.647s5.756-3.978,9.485-3.978,6.925,1.335,9.537,4.004c2.578,2.67,3.866,5.948,3.866,9.836,0,3.924-1.297,7.212-3.892,9.863-2.612,2.633-5.817,3.95-9.614,3.95-3.763,0-6.917-1.344-9.459-4.031-2.543-2.651-3.814-5.983-3.814-9.997Zm5.928.107c0,2.616.67,4.686,2.01,6.208,1.375,1.541,3.187,2.311,5.438,2.311,2.268,0,4.081-.761,5.438-2.284,1.357-1.522,2.036-3.556,2.036-6.1s-.679-4.578-2.036-6.101c-1.375-1.541-3.188-2.312-5.438-2.312-2.217,0-4.012.771-5.387,2.312-1.375,1.541-2.062,3.529-2.062,5.966Z" fill="#333" class="color0"></path><path d="m388.136,184.81c0,1.236-.039,2.325-.116,3.266-.078.94-.185,1.769-.322,2.485-.413,1.971-1.22,3.664-2.423,5.079-2.268,2.724-5.387,4.085-9.356,4.085-3.351,0-6.108-.94-8.274-2.821-2.234-1.936-3.522-4.613-3.866-8.035h5.825c.223,1.29.593,2.284,1.108,2.982,1.203,1.63,2.956,2.445,5.258,2.445,4.244,0,6.366-2.714,6.366-8.143v-3.654c-2.303,2.454-4.958,3.682-7.964,3.682-3.419,0-6.221-1.29-8.403-3.87-2.2-2.615-3.299-5.886-3.299-9.809,0-3.816,1.022-7.059,3.067-9.729,2.199-2.831,5.104-4.246,8.712-4.246,3.162,0,5.791,1.228,7.887,3.682v-2.956h5.799v25.557Zm-5.567-12.415c0-2.544-.653-4.578-1.959-6.101-1.323-1.559-3.016-2.338-5.078-2.338-2.2,0-3.935.851-5.207,2.553-1.151,1.523-1.727,3.493-1.727,5.912,0,2.383.575,4.336,1.727,5.858,1.254,1.666,2.99,2.499,5.207,2.499s3.97-.842,5.258-2.525c1.186-1.522,1.778-3.476,1.778-5.858Z" fill="#333" class="color0"></path><path d="m394.271,172.152c0-3.78,1.297-6.996,3.892-9.647s5.756-3.978,9.485-3.978,6.925,1.335,9.537,4.004c2.578,2.67,3.866,5.948,3.866,9.836,0,3.924-1.297,7.212-3.892,9.863-2.612,2.633-5.817,3.95-9.614,3.95-3.763,0-6.917-1.344-9.459-4.031-2.543-2.651-3.814-5.983-3.814-9.997Zm5.928.107c0,2.616.67,4.686,2.01,6.208,1.375,1.541,3.187,2.311,5.438,2.311,2.268,0,4.081-.761,5.438-2.284,1.357-1.522,2.036-3.556,2.036-6.1s-.679-4.578-2.036-6.101c-1.375-1.541-3.188-2.312-5.438-2.312-2.217,0-4.012.771-5.387,2.312-1.375,1.541-2.062,3.529-2.062,5.966Z" fill="#333" class="color0"></path></g><g><rect x="135.544" y="88.413" width="29.534" height="30.793" rx="2" ry="2" fill="#1e92ff" class="color1"></rect><rect x="76.476" y="119.207" width="29.534" height="30.793" rx="2" ry="2" fill="#1e92ff" class="color1"></rect><rect x="106.01" y="150" width="29.534" height="30.793" rx="2" ry="2" fill="#1e92ff" class="color1"></rect><rect x="76.476" y="180.793" width="29.534" height="30.793" rx="2" ry="2" fill="#1e92ff" class="color1"></rect></g></svg>