<svg xmlns="http://www.w3.org/2000/svg" height="24px" viewBox="0 -960 960 960" width="24px" fill="currentColor">
  <path d="M558-84q-18 0-29-12.5T518-124q0-15 11-27.5t29-12.5q18 0 29 12.5t11 27.5q0 15-11 27.5T558-84Zm-79-62q-7-17 2.5-33.5T508-196q17-7 33.5 2.5T558-168q7 17-2.5 33.5T529-118q-17 7-33.5-2.5T479-146Zm158-79q-7-17 2.5-33.5T666-275q17-7 33.5 2.5T716-247q7 17-2.5 33.5T687-197q-17 7-33.5-2.5T637-225ZM240-240q-50 0-85-35t-35-85q0-50 35-85t85-35q11 0 21 1.5t19 6.5q23-82 89-134t146-52q94 0 162.5 64T720-436q72-2 116 46.5T880-276q0 54-38 90t-92 36H240Zm158 76q-7-17 2.5-33.5T427-214q17-7 33.5 2.5T477-186q7 17-2.5 33.5T448-136q-17 7-33.5-2.5T398-164Z"/>
</svg>
